 <svg xmlns="http://www.w3.org/2000/svg" width="40px" height="40px" viewBox="0 0 63.8 92"><defs><filter id="dropshadow" x="-40%" y="-40%" width="180%" height="180%" filterUnits="userSpaceOnUse"><feGaussianBlur in="SourceAlpha" stdDeviation="4"></feGaussianBlur><feOffset dx="0" dy="0" result="offsetblur"></feOffset><feComponentTransfer><feFuncA type="linear" slope="0.4"></feFuncA></feComponentTransfer><feMerge><feMergeNode></feMergeNode><feMergeNode in="SourceGraphic"></feMergeNode><feMergeNode in="SourceGraphic"></feMergeNode></feMerge></filter></defs><g><g style="filter:url(#dropshadow)"><g transform="translate(0 5)"><path fill="#89b934" d="M31.8,2c16.5,0,29.8,13.4,29.8,29.8c0,23.7-23.7,47-29.8,47S2,55.5,2,31.8C2,15.4,15.4,2,31.8,2z"></path><path fill="#fff" d="M31.8,80.9c-4.7,0-13-7.8-18.8-15.4C8.2,59.1,0,46.2,0,31.8C0,14.3,14.3,0,31.8,0c17.6,0,31.8,14.3,31.8,31.8 c0,14.4-8.2,27.2-13,33.6C44.8,73.1,36.5,80.9,31.8,80.9z M31.8,4C16.5,4,4,16.5,4,31.8c0,22.6,23,45,27.8,45 c4.8,0,27.8-22.5,27.8-45C59.7,16.5,47.2,4,31.8,4z"></path></g></g><g fill="#fff" transform="translate(0 -6)"><svg xmlns="http://www.w3.org/2000/svg" viewBox="0 0 45 45"><path d="M32.47 34.19h-9.23V31h7.41a.82.82 0 0 0 .74-1.19l-2.25-4.61h1.27a.82.82 0 0 0 .69-1.27l-3.42-5.22h.6a.82.82 0 0 0 .66-1.32l-5.87-7.9a.82.82 0 0 0-1.32 0l-5.88 7.91a.82.82 0 0 0 .66 1.32h.61l-3.42 5.22a.82.82 0 0 0 .69 1.27h1.27l-2.24 4.59a.82.82 0 0 0 .74 1.2h7.41v3.22h-9.06v1.65h19.94zm-10.88-4.86H15.5l2.24-4.59a.82.82 0 0 0-.74-1.18h-1.07l3.41-5.22a.82.82 0 0 0-.69-1.27h-.48l4.24-5.7 4.24 5.7h-.48a.82.82 0 0 0-.69 1.27l3.4 5.22h-1.05a.82.82 0 0 0-.74 1.19l2.25 4.59h-6.1V24.8h-1.65z"></path></svg></g></g></svg>